<?xml version="1.0" encoding="UTF-8" standalone="no"?>
<!--?xml version="1.0" encoding="utf-8"?-->

<!-- Generator: Adobe Illustrator 18.1.1, SVG Export Plug-In . SVG Version: 6.00 Build 0)  -->

<svg
   version="1.1"
   id="_x32_"
   x="0px"
   y="0px"
   viewBox="0 0 512 512"
   style="width: 48px; height: 48px;"
   xml:space="preserve"
   xmlns="http://www.w3.org/2000/svg"
   xmlns:svg="http://www.w3.org/2000/svg"><defs
   id="defs25" />
<style
   type="text/css"
   id="style2">
	.st0{fill:#4B4B4B;}
</style>
<g
   id="g20">
	<path
   class="st0"
   d="M89.474,17.149c6.951-3.636,13.362-5.112,19.444-5.121c9.355,0,18.212,3.594,26.495,9.6   c12.409,8.958,23.079,23.349,30.402,36.677c3.669,6.647,6.528,13.024,8.427,18.237c0.776,2.126,1.383,4.032,1.822,5.677h-0.616   c0.448,0.911,0.86,1.848,1.266,2.775c0.177,0.97,0.253,1.712,0.244,2.016c0,1.839,0.844,3.458,2.143,4.563   c1.661,5.542,2.572,11.404,2.572,17.495c-0.008,28.318-19.123,52.105-45.138,59.334l47.179,68.959   c6.09,10.553,17.352,17.048,29.533,17.048c12.18,0,23.433-6.496,29.524-17.048l47.179-68.959   c-26.016-7.229-45.129-31.016-45.129-59.334c0-6.723,1.121-13.167,3.13-19.216c0.944-1.004,1.568-2.32,1.636-3.813   c0.008-0.16,0.042-0.472,0.11-0.86c0.422-0.996,0.869-1.991,1.342-2.961h-0.625c1.147-3.855,3.51-9.625,6.875-16.002   c5.922-11.27,14.973-24.614,25.838-34.838c5.432-5.12,11.303-9.456,17.394-12.459c6.09-3.012,12.349-4.699,18.802-4.699   c6.58,0.009,13.454,1.729,20.86,6.04c2.868,1.678,6.554,0.708,8.224-2.159c1.679-2.869,0.709-6.547-2.159-8.225   c-9.026-5.289-18.17-7.701-26.925-7.684c-12.232,0-23.45,4.588-33.193,11.295c-14.644,10.088-26.368,24.993-34.728,38.726   c-4.176,6.875-7.482,13.463-9.819,19.115c-1.173,2.825-2.109,5.415-2.784,7.743c-0.32,1.106-0.574,2.143-0.784,3.147H188.42   c-1.113-5.457-3.678-12.678-7.584-20.954c-6.048-12.754-15.234-27.693-27.229-39.773c-5.997-6.031-12.721-11.353-20.186-15.234   C125.956,2.395,117.706,0,108.917,0c-8.09,0-16.551,2.041-25.028,6.495c-2.944,1.535-4.074,5.179-2.538,8.115   C82.894,17.554,86.53,18.692,89.474,17.149z"
   style="fill: rgb(153, 51, 204);"
   id="path4" />
	<path
   class="st0"
   d="M313.922,99.266c-6.09-10.552-17.344-17.048-29.524-17.048h-16.002c-5.365,7.592-8.545,16.82-8.545,26.85   c0.008,12.89,5.204,24.496,13.648,32.949c6.808,6.806,15.672,11.438,25.593,13.015l14.83-21.67   C320.011,122.81,320.011,109.81,313.922,99.266z"
   style="fill:#9933cc;fill-opacity:1"
   id="path6" />
	<path
   class="st0"
   d="M158.086,82.219h-15.993c-12.181,0-23.442,6.496-29.532,17.048c-6.09,10.544-6.09,23.543,0,34.096   l14.829,21.67c9.921-1.577,18.786-6.209,25.593-13.015c8.444-8.453,13.648-20.06,13.648-32.949   C166.632,99.03,163.46,89.81,158.086,82.219z"
   style="fill:#9933cc;fill-opacity:1"
   id="path8" />
	<path
   class="st0"
   d="M101.114,225.029c-17.242,6.268-75.243,161.461-70.545,195.945c4.708,34.492,48.596,68.976,58.002,68.976   c9.406,0-3.13-14.112-7.836-53.303c-0.566-4.682-0.338-10.679,0.489-17.579l29.616-3.29L88.588,382.4   c1.645-6.454,3.458-13.092,5.391-19.764l26.883-2.986l-17.773-26.656c11.514-35.58,23.104-65.635,23.104-65.635   C134.029,240.702,118.356,218.762,101.114,225.029z"
   style="fill: rgb(153, 51, 204);"
   id="path10" />
	<path
   class="st0"
   d="M279.227,381.699l-17.765-26.655c11.514-35.572,23.104-65.636,23.104-65.636   c7.836-26.647-7.845-48.596-25.078-42.329c-17.251,6.268-75.243,161.461-70.545,195.954C193.65,477.516,237.539,512,246.945,512   c9.405,0-3.138-14.104-7.837-53.295c-0.565-4.681-0.337-10.679,0.49-17.587l29.608-3.29l-22.253-33.379   c1.646-6.453,3.467-13.084,5.391-19.764L279.227,381.699z"
   style="fill: rgb(153, 51, 204);"
   id="path12" />
	<path
   class="st0"
   d="m 481.7,283.469 -80.186,-26.057 c 2.007,22.05 -16.036,38.086 -36.078,46.108 4.825,5.964 10.645,12.012 17.04,18.001 -2.193,2.818 -3.509,5.044 -3.509,5.044 0,0 -1.932,16.718 -2.986,39.781 -32.594,-55.218 -71.911,-86.167 -71.911,-86.167 0,0 -4.707,-6.268 -10.974,-10.974 4.707,15.672 -10.974,47.026 -10.974,47.026 l 34.535,56.509 -14.896,26.149 31.666,1.282 16.095,26.344 -11.675,20.481 24.808,1.012 26.344,35.049 v 0 c 4.108,7.827 9.355,13.488 16.027,15.918 35.454,12.897 28.157,-89.525 16.634,-145.805 30.823,22.16 60.043,38.55 60.043,38.55 V 283.469 Z"
   style="fill:#9933cc"
   id="path14" />
	<path
   class="st0"
   d="M205.417,311.322c-28.114-39.502-55.707-61.215-55.707-61.215s-4.706-6.268-10.974-10.966   c4.699,15.673-10.974,47.019-10.974,47.019l34.534,56.516l-14.904,26.142l31.674,1.29l3.914,6.411   c5.643-19.064,11.969-37.065,16.061-48.25C201.25,322.247,203.367,316.62,205.417,311.322z"
   style="fill: rgb(153, 51, 204);"
   id="path16" />
	<path
   class="st0"
   d="M351.399,291.491c28.064,0,40.093-36.086,40.093-36.086c-3.078-4.614-52.139-65.83-74.83-94.096   l-33.927,49.582L351.399,291.491z"
   style="fill: rgb(153, 51, 204);"
   id="path18" />
</g>
</svg>
