<svg version="1.1" id="_x32_" x="0" y="0" viewBox="0 0 512 512" style="width:48px;height:48px" xml:space="preserve" xmlns="http://www.w3.org/2000/svg"><style type="text/css" id="style2">.st0{fill:#4b4b4b}</style><g id="g20"><path class="st0" d="M89.474 17.149c6.951-3.636 13.362-5.112 19.444-5.121 9.355 0 18.212 3.594 26.495 9.6 12.409 8.958 23.079 23.349 30.402 36.677 3.669 6.647 6.528 13.024 8.427 18.237.776 2.126 1.383 4.032 1.822 5.677h-.616c.448.911.86 1.848 1.266 2.775.177.97.253 1.712.244 2.016 0 1.839.844 3.458 2.143 4.563a60.8 60.8 0 0 1 2.572 17.495c-.008 28.318-19.123 52.105-45.138 59.334l47.179 68.959a34.096 34.096 0 0 0 59.057 0l47.179-68.959c-26.016-7.229-45.129-31.016-45.129-59.334 0-6.723 1.121-13.167 3.13-19.216.944-1.004 1.568-2.32 1.636-3.813.008-.16.042-.472.11-.86.422-.996.869-1.991 1.342-2.961h-.625c1.147-3.855 3.51-9.625 6.875-16.002 5.922-11.27 14.973-24.614 25.838-34.838 5.432-5.12 11.303-9.456 17.394-12.459 6.09-3.012 12.349-4.699 18.802-4.699 6.58.009 13.454 1.729 20.86 6.04a6.008 6.008 0 0 0 8.224-2.159 6.01 6.01 0 0 0-2.159-8.225c-9.026-5.289-18.17-7.701-26.925-7.684-12.232 0-23.45 4.588-33.193 11.295-14.644 10.088-26.368 24.993-34.728 38.726-4.176 6.875-7.482 13.463-9.819 19.115-1.173 2.825-2.109 5.415-2.784 7.743a42.695 42.695 0 0 0-.784 3.147H188.42c-1.113-5.457-3.678-12.678-7.584-20.954-6.048-12.754-15.234-27.693-27.229-39.773-5.997-6.031-12.721-11.353-20.186-15.234C125.956 2.395 117.706 0 108.917 0c-8.09 0-16.551 2.041-25.028 6.495-2.944 1.535-4.074 5.179-2.538 8.115a6.018 6.018 0 0 0 8.123 2.539z" style="fill:#93c" id="path4"/><path class="st0" d="M313.922 99.266a34.085 34.085 0 0 0-29.524-17.048h-16.002c-5.365 7.592-8.545 16.82-8.545 26.85.008 12.89 5.204 24.496 13.648 32.949 6.808 6.806 15.672 11.438 25.593 13.015l14.83-21.67a34.104 34.104 0 0 0 0-34.096z" style="fill:#6c3;fill-opacity:1" id="path6"/><path class="st0" d="M158.086 82.219h-15.993a34.096 34.096 0 0 0-29.532 51.144l14.829 21.67c9.921-1.577 18.786-6.209 25.593-13.015 8.444-8.453 13.648-20.06 13.648-32.949.001-10.039-3.171-19.259-8.545-26.85z" style="fill:#6c3;fill-opacity:1" id="path8"/><path class="st0" d="M101.114 225.029c-17.242 6.268-75.243 161.461-70.545 195.945 4.708 34.492 48.596 68.976 58.002 68.976 9.406 0-3.13-14.112-7.836-53.303-.566-4.682-.338-10.679.489-17.579l29.616-3.29L88.588 382.4a634.46 634.46 0 0 1 5.391-19.764l26.883-2.986-17.773-26.656c11.514-35.58 23.104-65.635 23.104-65.635 7.836-26.657-7.837-48.597-25.079-42.33z" style="fill:#93c" id="path10"/><path class="st0" d="m279.227 381.699-17.765-26.655c11.514-35.572 23.104-65.636 23.104-65.636 7.836-26.647-7.845-48.596-25.078-42.329-17.251 6.268-75.243 161.461-70.545 195.954C193.65 477.516 237.539 512 246.945 512c9.405 0-3.138-14.104-7.837-53.295-.565-4.681-.337-10.679.49-17.587l29.608-3.29-22.253-33.379a671.023 671.023 0 0 1 5.391-19.764l26.883-2.986z" style="fill:#93c" id="path12"/><path class="st0" d="m481.7 283.469-80.186-26.057c2.007 22.05-16.036 38.086-36.078 46.108 4.825 5.964 10.645 12.012 17.04 18.001-2.193 2.818-3.509 5.044-3.509 5.044s-1.932 16.718-2.986 39.781c-32.594-55.218-71.911-86.167-71.911-86.167s-4.707-6.268-10.974-10.974c4.707 15.672-10.974 47.026-10.974 47.026l34.535 56.509-14.896 26.149 31.666 1.282 16.095 26.344-11.675 20.481 24.808 1.012 26.344 35.049c4.108 7.827 9.355 13.488 16.027 15.918 35.454 12.897 28.157-89.525 16.634-145.805 30.823 22.16 60.043 38.55 60.043 38.55V283.469z" style="fill:#93c" id="path14"/><path class="st0" d="M205.417 311.322c-28.114-39.502-55.707-61.215-55.707-61.215s-4.706-6.268-10.974-10.966c4.699 15.673-10.974 47.019-10.974 47.019l34.534 56.516-14.904 26.142 31.674 1.29 3.914 6.411c5.643-19.064 11.969-37.065 16.061-48.25a1028.804 1028.804 0 0 1 6.376-16.947z" style="fill:#93c" id="path16"/><path class="st0" d="M351.399 291.491c28.064 0 40.093-36.086 40.093-36.086-3.078-4.614-52.139-65.83-74.83-94.096l-33.927 49.582 68.664 80.6z" style="fill:#93c" id="path18"/></g></svg>